<svg version="1.2" xmlns="http://www.w3.org/2000/svg" viewBox="0 0 219 60" width="219" height="60">
	<style>
		.s0 { fill: #48337e } 
		.s1 { fill: #d62a23 } 
		.s2 { fill: #ad1f1e } 
	</style>
	<path class="s0" d="m223.26 59.24v-58.15h1.76v58.15z"/>
	<path class="s0" d="m165.94 58.42h-11.88c0-7.78 0-15.6 0-23.38 0.06-2.09-0.44-4.18-1.49-6-0.99-1.44-2.42-2.43-4.12-2.82-1.71-0.38-3.47-0.44-5.23-0.27-0.6 0.05-1.26 0.11-1.87 0.22q-0.82 0.18-1.65 0.44-0.82 0.26-1.65 0.61v31.2h-11.94v-38.64c0.72-0.39 1.49-0.67 2.26-1 1.48-0.55 2.97-1.04 4.51-1.43q2.72-0.68 5.45-1.1 4.2-0.58 8.41-0.5 4.23 0.08 8.2 1.49c2.31 0.83 4.46 2.09 6.27 3.8 1.54 1.49 2.75 3.37 3.52 5.35q1.16 3.07 1.16 6.39c0 8.49 0 17.04 0 25.53z"/>
	<path id="Layer copy" class="s0" d="m165.94 58.42h-11.88c0-7.78 0-15.6 0-23.38 0.06-2.09-0.44-4.18-1.49-6-0.99-1.44-2.42-2.43-4.12-2.82-1.71-0.38-3.47-0.44-5.23-0.27-0.6 0.05-1.26 0.11-1.87 0.22q-0.82 0.18-1.65 0.44-0.82 0.26-1.65 0.61v31.2h-11.94v-38.64c0.72-0.39 1.49-0.67 2.26-1 1.48-0.55 2.97-1.04 4.51-1.43q2.72-0.68 5.45-1.1 4.2-0.58 8.41-0.5 4.23 0.08 8.2 1.49c2.31 0.83 4.46 2.09 6.27 3.8 1.54 1.49 2.75 3.37 3.52 5.35q1.16 3.07 1.16 6.39c0 8.49 0 17.04 0 25.53z"/>
	<path class="s1" d="m28.09 9.96q-0.68-2.06-1.43-4.13c-0.39-1.43-1.93-2.26-3.3-1.82-0.28 0.11-0.61 0.22-0.83 0.39-0.22 0.16-0.38 0.33-0.55 0.55-0.11 0.22-0.22 0.44-0.27 0.6l-0.06-0.05q0.1-0.33 0.28-0.66c0.6-1.27 1.59-2.37 2.86-3.04 0.33-0.16 0.66-0.33 1.04-0.44q0.57-0.16 1.21-0.33c0.33-0.05 0.72-0.11 1.05-0.11 1.1 0 2.25 0.22 3.24 0.72q1.49 0.76 2.48 2.09 0.59 0.83 0.93 1.82c1.1 3.2 2.2 6.34 3.3 9.54 0.06 0.22 0.17 0.44 0.22 0.72q4.95 0.07 9.91 0.22c0.22 0 0.38 0 0.6 0 0 0 0.06 0 0.06 0.05l-0.06 0.06c-0.11 0.16-0.16 0.33-0.27 0.49-0.11 0.17-0.28 0.44-0.33 0.61 0 0.05-0.06 0.17-0.11 0.22-0.06 0.06-0.17 0.22-0.22 0.28-0.11 0.16-0.28 0.44-0.33 0.6 0 0.06-0.06 0.17-0.11 0.22 0 0.06-0.17 0.22-0.22 0.28-0.77 1.54-1.76 3.2-2.7 4.68 0.28 0 0.55-0.05 0.88 0q0-0.01 0 0.06c-2.75-0.06-5.5-0.06-8.25-0.17q-1.91-0.16-3.41-1.32c-1.16-0.88-2.04-2.04-2.48-3.42q-1.48-4.31-2.97-8.54c-0.11-0.11-0.16-0.11-0.16-0.17z"/>
	<path class="s0" d="m349.57 18.23q0-7.21 0-14.33c0-0.61 0.33-1.21 0.88-1.49 0.33-0.11 0.66-0.22 1.04-0.16q2.49 0 4.9 0c1.54-0.06 3.08 0.55 4.12 1.65 1.16 1.49 1.16 3.58 0 5.07q-0.5 0.66-1.26 0.99c1.04 0.28 1.87 0.94 2.42 1.88 0.27 0.44 0.38 0.93 0.44 1.43 0.11 0.99-0.11 1.99-0.66 2.81-0.77 1.05-1.93 1.77-3.19 1.99-0.28 0.05-0.61 0.11-0.88 0.11-2.59 0.11-5.23 0.05-7.81 0.05zm3.3-2.7c1.37 0.11 2.75 0.06 4.12-0.05 0.22-0.06 0.39-0.11 0.61-0.17 0.49-0.22 0.88-0.66 1.04-1.16 0.22-0.71 0.06-1.54-0.44-2.09-0.33-0.33-0.82-0.55-1.32-0.61-1.32-0.05-2.64 0-3.96 0zm0-6.78q1.64 0 3.19 0c0.77 0 1.49-0.44 1.82-1.1 0.27-0.5 0.27-1.16 0-1.66-0.28-0.6-0.83-0.99-1.49-0.99-1.15-0.05-2.36-0.11-3.52-0.05z"/>
	<path class="s0" d="m235.7 18.18h-3.25c0-4.74 0-9.43 0-14.17 0-0.88 0.28-1.6 1.21-1.82q0.25-0.07 0.5-0.05c1.76 0 3.57-0.06 5.33 0q0.5 0.01 0.99 0.11c0.99 0.16 1.93 0.66 2.59 1.37 0.44 0.5 0.82 1.05 1.04 1.66 0.11 0.33 0.22 0.71 0.28 1.04q0.09 0.5 0.11 1c0.11 1.49-0.44 2.97-1.49 4.08-0.55 0.49-1.21 0.88-1.87 1.15-0.38 0.11-0.71 0.22-1.1 0.28-0.33 0.05-0.71 0.11-1.04 0.11q-0.91 0.08-1.82 0c-0.49-0.06-0.93-0.11-1.43-0.17v5.3zm1.27-7.78q0.75 0.09 1.43 0c1.15-0.11 2.25-0.71 2.58-1.87 0.17-0.5 0.17-1.05 0.06-1.6-0.11-0.61-0.44-1.16-0.94-1.54-0.6-0.33-1.32-0.55-1.98-0.5q-1.15 0-2.31 0v5.35q0.5 0.08 1.16 0.16z"/>
	<path class="s0" d="m111.87 13.93c-2.15-0.27-4.02-1.6-5.01-3.53q-0.58-1.17-0.66-2.42c-0.11-1.21 0.17-2.48 0.77-3.58 0.88-1.49 2.26-2.65 3.91-3.09 1.7-0.5 3.57-0.33 5.17 0.49 1.54 0.83 2.69 2.21 3.19 3.86 0.49 1.71 0.27 3.48-0.61 5.02-0.93 1.54-2.42 2.65-4.18 3.09q-1.25 0.33-2.58 0.16z"/>
	<path class="s0" d="m287.95 18.23v-6.89c0.12-0.83-0.21-1.65-0.82-2.26-0.66-0.44-1.49-0.55-2.25-0.33-1.22 0.33-1.66 1.6-1.66 2.76 0 2.26 0 4.46 0 6.72h-3.24c0-2.26 0-4.57 0-6.83 0.05-0.89-0.28-1.77-0.94-2.32-0.71-0.49-1.98-0.44-2.75-0.33q-0.51 0.08-0.93 0.33v9.15h-3.25v-11.19c1.54-0.72 3.25-1.05 4.95-1.1 1.05-0.06 2.09 0.05 3.08 0.38 0.83 0.28 1.49 0.78 2.04 1.44 0.77-0.94 1.87-1.6 3.02-1.77 1.38-0.22 2.75 0 3.97 0.61 1.04 0.61 1.81 1.65 1.98 2.87 0.05 0.27 0.05 0.6 0.05 0.88q0 3.89 0 7.77z"/>
	<path class="s1" d="m3.99 29.2c0.06 0 0.06 0 0.11 0q-0.01 0 0.06 0 0.15-0.16 0.38-0.16l0.06-0.06h0.05c0.11-0.05 0.28-0.16 0.44-0.22l0.06-0.05c0.05 0 0.05 0 0.11 0q1.88-0.91 3.85-1.82c0 0 0 0 0.05-0.06h0.06c0.11-0.05 0.27-0.16 0.44-0.22 0 0 0 0 0.05-0.05h0.11c0.39-0.23 0.72-0.34 1.1-0.56 0.06 0 0.06 0 0.11 0l0.06-0.05h0.05c0.12-0.06 0.28-0.17 0.45-0.22 0 0 0 0 0.05-0.06h0.11c0.11-0.05 0.17-0.11 0.28-0.11 0-0.05 0-0.05 0-0.11l4.89 3.75q0.98 0.75 1.71 1.82c0.66 1.05 1.04 2.26 1.1 3.53q0 1.22-0.33 2.37-1.32 4.38-2.64 8.76c-0.44 1.44-0.88 2.87-1.27 4.25-0.33 0.94-0.11 1.93 0.5 2.64 0.44 0.5 1.04 0.83 1.7 0.89q0.66 0.08 1.32-0.17h0.06c-0.22 0.17-0.5 0.28-0.77 0.39-1.54 0.66-3.25 0.77-4.84 0.27-1.21-0.38-2.26-1.1-3.09-2.04-0.82-0.88-1.37-1.98-1.59-3.14-0.06-0.28-0.11-0.61-0.11-0.88q-0.08-1.09 0.16-2.1c0.06-0.27 0.11-0.49 0.22-0.77 1.05-3.36 2.04-6.67 3.03-10.03l-0.16-0.11z"/>
	<path class="s0" d="m335.1 18.45c-1.05-0.11-2.15-0.38-3.14-0.82q-0.66-0.25-1.15-0.67l1.26-2.2c1.16 0.72 2.48 1.16 3.85 1.27 0.83 0.05 1.87 0.05 2.59-0.39 0.33-0.27 0.44-0.72 0.33-1.1-0.17-0.5-0.77-0.66-1.21-0.72-1.43-0.27-2.97-0.27-4.35-0.77-1.15-0.39-1.98-1.32-2.14-2.48-0.39-1.93 0.88-3.8 2.8-4.19 2.09-0.5 4.29-0.44 6.38 0.28 0.66 0.16 1.22 0.66 1.43 1.32q0.09 0.49-0.16 0.99-0.33 0.5-0.83 0.83-0.59-0.5-1.26-0.83-1.5-0.58-3.08-0.5-0.81 0-1.54 0.34c-0.39 0.22-0.61 0.71-0.44 1.15 0.16 0.5 0.88 0.66 1.32 0.72 1.1 0.17 2.25 0.28 3.35 0.5 0.99 0.16 1.93 0.6 2.59 1.37 0.66 0.89 0.82 2.04 0.49 3.15-0.44 1.26-1.48 2.26-2.75 2.59q-2.21 0.49-4.34 0.16z"/>
	<path class="s0" d="m385.82 18.23q0-3.39 0-6.78c0.05-0.72-0.22-1.49-0.66-2.04-0.72-0.82-2.2-0.83-3.19-0.66q-0.59 0.08-1.1 0.33v9.15h-3.25v-11.19c1.87-0.77 3.91-1.16 5.94-1.1 1.54 0 3.03 0.5 4.18 1.54 0.72 0.72 1.16 1.66 1.27 2.7 0.05 0.22 0.05 0.5 0.05 0.72q0 3.64 0 7.28v0.05z"/>
	<path class="s0" d="m299.18 18.62c-1.6-0.06-3.14-0.66-4.29-1.82q-0.83-0.84-1.16-1.93c-0.38-1.27-0.49-2.59-0.27-3.91 0.27-1.66 1.21-3.15 2.58-4.08 1.43-0.83 3.08-1.16 4.68-0.94 1.37 0.11 2.64 0.83 3.52 1.93 0.71 0.99 0.99 2.26 0.77 3.47-0.11 0.5-0.33 0.99-0.66 1.38-0.66 0.61-1.54 0.94-2.48 0.94-1.7 0.05-3.46 0-5.17 0 0.28 1.04 1.1 1.87 2.15 2.09 0.77 0.17 1.59 0.22 2.36 0.11q1.17-0.08 2.26-0.49l0.88 2.31c-0.94 0.39-1.93 0.66-2.92 0.77-0.66 0.17-1.48 0.17-2.25 0.17zm-2.53-7.11c1.48 0 2.91 0 4.4 0q0.34 0 0.6-0.17c0.39-0.22 0.44-0.77 0.44-1.16-0.05-0.93-0.71-1.76-1.65-1.93-0.82-0.22-1.65-0.05-2.36 0.45-0.88 0.66-1.43 1.7-1.43 2.81z"/>
	<path class="s0" d="m325.58 18.56c-0.77 0-1.54-0.27-2.2-0.71-0.82-0.67-1.37-1.66-1.43-2.76-0.22-1.82-0.05-4.24-0.05-6.12-0.5 0.06-1.05 0-1.54-0.11-0.61-0.22-0.72-0.99-0.61-1.6q0.1-0.49 0.28-0.99h1.87v-2.09c0-0.89 0.6-1.33 1.43-1.33 0.6 0 1.21 0.06 1.81 0.28v3.2h2.48c0.49-0.06 0.93 0.16 1.21 0.55q0.25 0.56 0.16 1.21c-0.05 0.33-0.16 0.61-0.27 0.94h-3.58c0 1.76 0 3.47 0 5.23-0.05 0.44 0.11 0.89 0.44 1.27q0.33 0.25 0.66 0.33c0.83 0.17 1.71-0.05 2.42-0.55l1.21 1.93c-0.82 0.72-1.92 1.16-3.02 1.27-0.44 0.05-0.88 0.05-1.27 0.05z"/>
	<path class="s0" d="m259.95 22.86c-0.88-0.05-1.76-0.27-2.53-0.66l0.94-2.31c0.83 0.44 1.76 0.44 2.59 0.11 0.32-0.22 0.66-0.5 0.82-0.89 0.38-0.6 0.77-1.26 1.05-1.93-0.99-1.65-1.99-3.36-2.92-5.01-0.6-1.05-1.21-2.1-1.71-3.14-0.38-0.61-0.44-1.38-0.11-1.99 0.22-0.38 0.67-0.6 1.11-0.66 0.32-0.06 0.71-0.06 1.04 0q0.33 0.07 0.66 0.22c0.06 0 0.06 0 0.06 0.06 1.1 2.42 2.25 4.85 3.52 7.16 0.88-1.98 1.7-4.02 2.53-6.01 0.16-0.49 0.49-0.93 0.88-1.26 0.66-0.34 1.43-0.34 2.14 0 0.22 0.11 0.44 0.27 0.61 0.44-0.11 0.38-0.28 0.82-0.44 1.21-0.83 2.15-1.76 4.24-2.7 6.34q-1 2.31-2.25 4.46-0.76 1.57-2.1 2.81c-0.71 0.61-1.53 0.94-2.41 1.05q-0.35 0-0.78 0z"/>
	<path class="s0" d="m118.74 58.47h-11.88q0-17.87 0-35.66 0-0.98 0.17-2.04c0.16-0.99 0.71-1.82 1.54-2.37q1.14-0.75 2.53-0.99c1.76-0.28 3.57-0.23 5.33 0.22q0.83 0.17 1.65 0.44c0.28 0.05 0.5 0.16 0.72 0.27v40.13z"/>
	<path class="s0" d="m371.02 33.34h-2.91v-2.98h3.02v2.98z"/>
	<path class="s0" d="m328.44 59.19l-4.4-3.86-0.93 0.55-1.6-1.65 2.64-1.6 6.27 5.29z"/>
	<path class="s0" d="m400.12 18.23c-0.77-1.05-1.59-1.98-2.48-2.92q-1.15-1.24-2.47-2.32v5.24h-3.25c0-5.29 0-10.53 0-15.82 0-0.99 0.77-1.38 1.65-1.38 0.55 0 1.11 0.11 1.6 0.28 0 3.09 0 6.23 0 9.31v0.11c1.43-1.15 2.75-2.42 4.18-3.58 0.61-0.6 1.49-0.94 2.37-0.83 0.71 0.06 1.37 0.45 1.76 1.05l0.05 0.06q-0.49 0.48-0.99 0.88-1.98 1.72-4.12 3.36 1.63 1.32 3.02 2.98c0.99 1.1 1.93 2.26 2.75 3.53z"/>
	<path class="s0" d="m66.98 58.47h-0.17q0-21.51 0-43.1 0.02-2.07 0.77-3.97c0.83-2.26 2.42-4.25 4.46-5.57 2.2-1.38 4.68-2.21 7.21-2.43q1.48-0.16 2.97-0.16c4.84 0 9.73 0 14.57 0 0.94 0 1.88 0.16 2.76 0.44 1.15 0.39 2.03 1.27 2.42 2.42 0.49 1.55 0.55 3.26 0.16 4.86q-0.33 1.4-0.99 2.64c-0.11 0.17-0.22 0.39-0.33 0.55h-16.17c-1.1-0.05-2.2 0.17-3.19 0.66-0.94 0.45-1.65 1.22-2.04 2.21-0.16 0.39-0.22 0.83-0.27 1.27 0 2.53 0 5.12 0 7.66h15.29c1.04 0 2.14 0.17 3.13 0.55 1.22 0.55 2.1 1.65 2.37 2.92 0.33 1.55 0.27 3.14-0.11 4.69q-0.25 0.92-0.66 1.76c-0.16 0.39-0.33 0.72-0.55 1.05h-19.47v21.61h-12.16z"/>
	<path class="s0" d="m368.93 18.56c-1.32 0.06-2.58-0.22-3.74-0.77-0.61-0.33-1.1-0.83-1.38-1.49-0.27-0.88-0.33-1.82-0.11-2.7 0.17-0.72 0.55-1.38 1.21-1.82 1.38-0.93 3.74-0.99 5.4-0.88 0.49 0 0.99 0.06 1.43 0.11 0.11-0.83-0.22-1.65-0.83-2.15-0.93-0.5-2.04-0.66-3.14-0.44q-0.59 0.08-1.09 0.33-0.65 0.25-1.22 0.66c-0.44-0.27-0.77-0.77-0.82-1.32-0.06-0.83 0.55-1.54 1.37-1.71 0.39-0.11 0.72-0.22 1.11-0.28 1.53-0.22 3.13-0.11 4.62 0.28 0.99 0.28 1.87 0.88 2.42 1.71 0.55 0.83 0.82 1.76 0.77 2.7 0.05 2.43 0 4.91 0 7.33-0.55 0.11-1.1 0.17-1.71 0.22q-2.23 0.24-4.29 0.22zm0.06-2.15c0.88 0.06 1.75-0.05 2.64-0.22v-3.19c-0.44-0.06-0.83-0.12-1.27-0.12-0.88-0.11-1.76 0-2.64 0.23-0.66 0.22-1.04 0.82-0.99 1.48 0 0.22 0 0.5 0.11 0.72 0.33 0.83 1.37 1.1 2.15 1.1z"/>
	<path class="s0" d="m250.82 18.56c-1.21 0-2.47-0.22-3.57-0.71-0.44-0.22-0.83-0.56-1.1-0.89q-0.59-0.91-0.61-1.98c0-0.22 0-0.39 0-0.61 0-0.82 0.33-1.65 0.88-2.26 0.44-0.38 0.94-0.71 1.49-0.88 1.37-0.38 2.8-0.5 4.18-0.38 0.49 0 1.04 0.05 1.54 0.11 0.16-0.83-0.22-1.66-0.88-2.1-0.72-0.5-2.15-0.55-2.97-0.44-0.83 0.11-1.65 0.44-2.37 0.99h-0.05c-0.33-0.22-0.61-0.55-0.72-0.94-0.16-0.44-0.11-0.93 0.11-1.32 0.66-0.99 2.7-1.16 3.74-1.16 1.38-0.05 2.81 0.22 4.07 0.78q0.91 0.42 1.49 1.26c0.55 0.78 0.82 1.77 0.82 2.7 0.06 2.49 0 4.91 0 7.39-0.6 0.11-1.21 0.22-1.87 0.28-1.37 0.11-2.8 0.16-4.18 0.16zm0.33-2.2c0.39 0 0.72 0 1.1 0q0.65-0.09 1.38-0.17v-3.19c-0.44-0.06-0.83-0.12-1.27-0.12-0.88-0.05-2.69-0.11-3.3 0.67-0.27 0.38-0.38 0.88-0.33 1.37q0 0.25 0.17 0.5c0.05 0.11 0.16 0.28 0.27 0.33 0.55 0.44 1.27 0.66 1.98 0.61z"/>
	<path class="s0" d="m315.46 18.23q0-3.39 0-6.78c0.06-0.94-0.33-1.82-0.99-2.37-0.77-0.55-2.03-0.5-2.91-0.33q-0.57 0.08-1.05 0.33v9.15h-3.25v-11.19c1.88-0.77 3.91-1.16 5.95-1.1 1.54 0 3.02 0.55 4.18 1.54 0.71 0.72 1.15 1.66 1.26 2.65 0.06 0.22 0.06 0.49 0.06 0.72 0 2.48 0 4.9 0 7.38z"/>
	<path class="s1" d="m21.43 5.99c0.06 0.11 0.06 0.17 0.11 0.28l0.61 0.61v0.05c0.6 0.61 1.1 1.21 1.76 1.82v0.06l0.6 0.6v0.06l0.61 0.6v0.06c0.6 0.6 1.1 1.27 1.76 1.82v0.05l0.38 0.39q-0.01-0.08 0.06-0.17c0.05-0.05 0.05 0 0.05 0-0.77 2.21-1.54 4.36-2.25 6.56q-0.17 0.42-0.33 0.83c-0.39 0.77-0.94 1.49-1.54 2.09q-1.34 1.24-3.08 1.66c-0.33 0.05-0.61 0.11-0.94 0.16-2.86 0.11-5.78 0.11-8.69 0.17l-1.1 0.05c0 0-0.06 0-0.06 0.06q-0.08-0.07-0.16-0.06-2.15 0.07-4.29 0.06c-0.33 0-0.61 0.05-0.94 0.11q-0.75 0.25-1.26 0.83c-0.61 0.77-0.77 1.76-0.44 2.64 0.11 0.33 0.33 0.61 0.55 0.83q0.09 0.08 0.27 0.16v0.06q-0.31-0.25-0.55-0.5c-1.59-1.54-2.36-3.74-2.03-5.95 0.22-1.32 0.77-2.59 1.65-3.58 0.99-1.16 2.31-1.93 3.74-2.26 0.27-0.06 0.55-0.11 0.88-0.11 3.74-0.11 7.48-0.17 11.28-0.22 0.05-0.17 0.11-0.28 0.16-0.44 0.99-3.09 2.09-6.23 3.19-9.38z"/>
	<path class="s0" d="m316.56 33.23h-2.97v-2.76h3.03v2.76z"/>
	<path class="s2" d="m21.43 5.99c0.06-0.11 0.06-0.22 0.11-0.33 0-0.05 0-0.05 0.06-0.11l0.05 0.06q0.08-0.35 0.33-0.61c0.17-0.22 0.33-0.38 0.55-0.55 1.21-0.88 2.86-0.61 3.74 0.55 0.17 0.28 0.33 0.55 0.44 0.88 0.5 1.38 0.94 2.76 1.43 4.14v0.05c-0.22 0.72-0.49 1.38-0.71 2.1q-0.07 0-0.06 0c0 0 0 0.11-0.05 0.16l-0.39-0.38v-0.06c-0.6-0.6-1.15-1.26-1.76-1.82v-0.05l-0.6-0.61v-0.05l-0.61-0.61v-0.05c-0.6-0.61-1.15-1.27-1.76-1.82l-0.6-0.61c-0.06-0.11-0.11-0.17-0.17-0.28z"/>
	<path class="s0" d="m193.23 59.19c-2.81-0.06-5.61-0.61-8.25-1.65-2.59-1.11-4.9-2.65-6.88-4.58-2.47-2.48-4.24-5.51-5.17-8.87-0.77-2.82-0.99-5.74-0.77-8.6 0.22-2.82 1.04-5.63 2.31-8.16 1.27-2.48 3.03-4.63 5.23-6.4 2.86-2.26 6.21-3.8 9.79-4.41 2.97-0.49 5.99-0.49 8.91 0 2.86 0.5 5.61 1.6 8.03 3.15 2.92 1.87 5.34 4.46 6.93 7.49 1.32 2.54 2.15 5.35 2.37 8.22 0.27 2.92 0 5.89-0.83 8.71-0.77 2.81-2.14 5.4-4.01 7.6-1.93 2.26-4.29 4.08-6.99 5.35-2.7 1.27-5.61 1.98-8.58 2.09-0.66 0.06-1.38 0.11-2.09 0.06zm0.38-8.77q1.17 0 2.26-0.16c1.48-0.22 2.86-0.83 4.07-1.71 1.54-1.16 2.75-2.7 3.52-4.46q0.92-2.32 1.1-4.8c0.22-2.26 0-4.58-0.6-6.78-0.5-1.82-1.43-3.42-2.76-4.74-1.26-1.27-2.91-2.21-4.67-2.59-1.43-0.33-2.92-0.39-4.4-0.11-1.1 0.16-2.09 0.49-3.08 1.04q-2.07 1.18-3.47 3.09c-1.15 1.71-1.87 3.64-2.09 5.62q-0.4 2.73-0.05 5.46c0.22 1.99 0.88 3.92 1.92 5.62 0.83 1.22 1.87 2.26 3.08 3.04 1.6 0.93 3.36 1.48 5.17 1.48z"/>
	<path class="s2" d="m3.99 29.2q-0.41-0.34-0.82-0.6c-0.06-0.06-0.06-0.06-0.11-0.11q0-0.02 0-0.11c-0.11-0.06-0.17-0.12-0.28-0.17-0.22-0.22-0.44-0.5-0.55-0.83-0.33-0.88-0.16-1.93 0.44-2.64 0.33-0.39 0.77-0.72 1.27-0.83 0.33-0.11 0.6-0.11 0.93-0.11 1.43 0 2.86-0.06 4.29-0.06q0.09-0.01 0.17 0.06c0.82 0.61 1.65 1.27 2.42 1.87 0 0.06 0 0.06 0 0.11-0.11 0-0.22 0.06-0.28 0.11h-0.05c0 0 0 0.06-0.06 0.06-0.16 0.05-0.27 0.11-0.44 0.22h-0.05l-0.06 0.06c-0.05 0-0.05 0-0.11 0-0.38 0.22-0.71 0.33-1.1 0.55h-0.11c0 0 0 0-0.05 0.05-0.17 0.06-0.28 0.17-0.44 0.22h-0.06c0 0 0 0.06-0.05 0.06-1.27 0.55-2.59 1.21-3.85 1.82q-0.02 0-0.11 0l-0.06 0.05c-0.16 0.06-0.27 0.11-0.44 0.22h-0.05l-0.06 0.06q-0.23 0.08-0.38 0.16h-0.06c0.17-0.22 0.17-0.22 0.11-0.22z"/>
	<path class="s1" d="m37.38 53.46c0 0 0.06-0.06 0.06 0q0.41 0.15 0.82 0.22c0.39 0 0.83-0.06 1.21-0.17 1.05-0.38 1.71-1.43 1.71-2.53 0-0.22-0.06-0.5-0.11-0.72q-0.66-2.14-1.32-4.36v-0.11c-0.88-2.97-1.76-5.89-2.7-8.87q-0.08-0.33-0.16-0.66c-0.22-1.16-0.17-2.32 0.22-3.42 0.44-1.38 1.32-2.59 2.42-3.42q3.73-2.81 7.37-5.62-0.33 0-0.66 0c0.22 0 0.39 0 0.61 0q-0.02 0 0.05 0c0.06 0 0.06-0.06 0.06-0.06 1.15-0.82 2.31-1.76 3.46-2.64 1.21-0.83 1.54-2.54 0.72-3.75-0.22-0.28-0.44-0.55-0.72-0.72-0.27-0.16-0.6-0.33-0.93-0.38l-0.06-0.06q0.57 0.09 1.05 0.17c0.88 0.22 1.7 0.55 2.42 1.1 1.1 0.83 1.98 1.93 2.42 3.25 0.82 2.26 0.44 4.74-1.05 6.62q-0.58 0.74-1.32 1.32-4.29 3.29-8.58 6.51c1.1 3.52 2.2 7.05 3.19 10.58 0.11 0.44 0.22 0.88 0.22 1.38 0.06 0.99-0.11 1.93-0.44 2.86-0.55 1.44-1.59 2.65-2.91 3.48-0.33 0.22-0.72 0.38-1.1 0.55q-0.58 0.25-1.16 0.33c-0.33 0.05-0.72 0.11-1.05 0.11q-0.49 0.01-0.99-0.06c-0.6-0.05-1.26-0.22-1.81-0.44q-0.43-0.25-0.94-0.49z"/>
	<path class="s0" d="m381.09 52.08h-3.3v-2.76c-0.94 0.66-2.09 0.88-3.25 0.66-1.04-0.16-2.03-0.55-2.86-1.21-1.37-1.05-1.98-2.76-1.59-4.46 0.49-1.49 1.59-2.65 3.02-3.2q1.67-0.66 3.41-0.33 0.57 0.16 1.05 0.33l-0.83 2.48c-0.66-0.22-1.37-0.28-2.09-0.11-0.55 0.22-1.04 0.61-1.26 1.21-0.17 0.39-0.17 0.83 0 1.21q0.34 0.83 1.1 1.16c0.77 0.33 1.7 0.22 2.36-0.27q0.43-0.25 0.77-0.66v-6.73h-10.23v12.68h-3.35v-2.81c-1.1 0.6-2.37 0.82-3.64 0.6-1.15-0.16-2.25-0.66-3.13-1.43q-0.91-0.83-1.32-1.98c-0.55-1.77 0-3.64 1.37-4.86 1.1-0.93 2.48-1.43 3.91-1.37 0.66 0 1.38 0.05 2.04 0.27q0.24 0.07 0.49 0.22l-0.77 2.37c-0.6-0.27-1.27-0.38-1.93-0.27-0.11 0-0.27 0.05-0.38 0.05l3.41 3.03v-6.5h-9.24v-2.43h8.91l-6.38-3.03 1.65-2.59 6.05 4.19c0 0 0.06 0.06 0.06 0l-2.98-5.13 2.65-0.99h0.11c0 0 0 0.06 0.05 0.06 1.1 2.42 2.2 4.9 3.25 7.33l0.05 0.11h21.73v2.37q0.01 0-0.05 0c-2.92 0.11-5.95 0-8.86 0v1.98c0.55-0.44 1.26-0.71 1.98-0.71 1.15-0.06 2.31 0.16 3.3 0.71 0.88 0.5 1.59 1.22 2.09 2.1 0.6 1.16 0.66 2.48 0.22 3.75-0.55 1.49-1.6 2.75-2.92 3.58-0.27 0.17-0.55 0.39-0.88 0.5l-1.81-2.37c0.88-0.39 1.65-1.11 2.09-1.93 0.38-0.66 0.49-1.55 0.16-2.26-0.22-0.5-0.66-0.89-1.1-1.11-0.71-0.27-1.54-0.22-2.2 0.22q-0.57 0.34-0.99 0.83v7.5zm-20.08-4.74c0.55 0.11 1.16 0 1.6-0.28-0.99-0.93-2.04-1.87-3.03-2.75l-0.05-0.06-0.06 0.06q-0.15 0.24-0.22 0.49c-0.11 0.33-0.05 0.66 0.06 0.99 0.22 0.78 0.88 1.38 1.7 1.55z"/>
	<path class="s2" d="m46.24 23.63h-0.55-0.44v-0.05c-0.27 0-0.6 0-0.88 0 0.88-1.49 1.87-3.14 2.7-4.69 0.05-0.11 0.16-0.22 0.22-0.27 0.05-0.11 0.05-0.17 0.11-0.22 0.11-0.17 0.22-0.44 0.33-0.61 0.05-0.05 0.16-0.22 0.22-0.27 0.05-0.06 0.05-0.17 0.11-0.23 0.05-0.16 0.27-0.49 0.33-0.6 0.05-0.11 0.16-0.33 0.27-0.5l0.06-0.05c0 0 0-0.06 0.05-0.06 0.11 0 0.17 0 0.28 0.06h0.05q0.17 0 0.33 0l0.06 0.05c0.33 0.06 0.66 0.17 0.93 0.39 1.21 0.83 1.6 2.48 0.77 3.69-0.16 0.28-0.44 0.55-0.71 0.72q-1.74 1.32-3.47 2.64c0 0-0.05 0.06-0.11 0.06q0.01 0-0.05 0c-0.17-0.06-0.39-0.06-0.61-0.06z"/>
	<path class="s0" d="m279.15 52.08h-3.24v-12.68h-3.36v12.68h-0.05c-1.1 0.05-2.2 0-3.3 0v-7.39h-3.69q-0.42 0-0.6 0.33c-0.06 0.11-0.11 0.28-0.11 0.39 0 0.55 0 1.05 0 1.6 0 0.55-0.33 0.99-0.88 1.15-0.44 0.06-0.94-0.05-1.27-0.33-0.38-0.27-0.71-0.55-1.04-0.88-0.72-0.71-1.32-1.6-1.82-2.48-0.33-0.49-0.38-1.1-0.22-1.65 0.17-0.33 0.5-0.55 0.88-0.61q0.18 0 0.28 0 4.2 0 8.41 0v-2.76h-18.37v2.54q0.59-0.66 1.43-0.83c1.15-0.27 2.37-0.16 3.47 0.22q1.22 0.5 2.03 1.49c1.1 1.44 0.83 3.26 0.17 4.8-0.28 0.66-0.55 1.32-0.88 1.93q-0.51 0.91-1.1 1.82l-2.65-1.99c0.72-0.77 1.27-1.71 1.6-2.7 0.22-0.6 0.28-1.27 0.22-1.93-0.16-0.77-0.88-1.27-1.65-1.16-0.55 0.06-1.1 0.28-1.54 0.56-0.44 0.27-0.77 0.66-1.1 1.04v6.84h-3.36v-4.47c-0.6 0.55-1.37 0.83-2.2 0.83-1.15 0.11-2.31-0.22-3.24-0.88q-1.17-0.83-1.6-2.15c-0.16-0.5-0.22-1.05-0.22-1.54v-4.47h-2.58v12.68h-3.3v-12.68h-1.76v-2.43h1.65c-0.22-0.66-0.33-1.37-0.28-2.09 0.17-1.65 1.38-2.87 2.81-3.64 1.59-0.83 3.41-1.16 5.17-0.88 1.32 0.22 2.53 0.83 3.57 1.65 1.6 1.27 2.86 2.92 3.8 4.74h-2.97q-0.74-1.32-1.82-2.31c-0.44-0.39-0.93-0.77-1.43-1.05-0.93-0.49-2.03-0.72-3.08-0.49-0.88 0.16-1.65 0.55-2.25 1.21-0.61 0.77-0.39 1.98-0.06 2.81h38.84l-6.38-5.79c0 0 0.05 0 0.05-0.05 0.83-0.56 1.6-1.16 2.42-1.71l6.93 7.55h1.71v2.42h-1.98zm-34.33-6.22q0.57 0.08 1.05-0.17c0.71-0.39 1.26-0.99 1.65-1.71v-4.57h-3.91c0 1.48 0 3.03 0 4.52 0 0.22 0.06 0.44 0.06 0.66q0.33 0.84 1.15 1.27z"/>
	<path class="s0" d="m18.85 53.46h-0.06q-0.66 0.24-1.32 0.16c-1.43-0.16-2.47-1.49-2.36-2.92 0-0.22 0.05-0.39 0.16-0.61 0.44-1.37 0.83-2.81 1.27-4.24h0.05q3.8-2.65 7.59-5.29c1.65-1.22 3.8-1.6 5.78-1.05 0.82 0.22 1.59 0.61 2.25 1.1 2.48 1.71 5.01 3.48 7.49 5.18h0.05q0.66 2.22 1.32 4.36c0.06 0.22 0.11 0.49 0.11 0.72 0 1.1-0.66 2.09-1.7 2.53q-0.57 0.17-1.22 0.17c-0.27 0-0.55-0.11-0.82-0.22h-0.06c0 0-0.22-0.11-0.27-0.17-1.76-1.21-3.47-2.42-5.23-3.64q0 2.98 0 5.96c-0.05 1.93-1.65 3.52-3.57 3.63-0.77 0.06-1.54-0.16-2.2-0.55-1.1-0.66-1.76-1.82-1.82-3.03-0.05-1.98 0-4.02 0-6.01-1.76 1.22-3.46 2.43-5.22 3.64z"/>
	<path class="s0" d="m337.96 52.52c0 0-0.06 0-0.06-0.06-2.42-3.25-4.89-6.45-7.31-9.7l2.47-1.76c0.33 0.83 0.94 1.6 1.65 2.09 0.28 0.22 0.61 0.22 0.88 0.11 0.28-0.22 0.5-0.6 0.5-0.93 0.05-0.94 0-1.99 0-2.93h-7.98v4.69h-5.28c-0.66-0.05-1.26 0.22-1.7 0.66-0.61 0.66-0.77 1.55-0.44 2.37 0.33 0.88 0.93 1.66 1.76 2.1 1.15 0.49 2.47 0.55 3.63 0.05 0.71-0.22 1.37-0.66 1.87-1.21l2.42 1.76q-0.74 0.9-1.82 1.38c-0.77 0.39-1.65 0.66-2.53 0.77-1.54 0.28-3.13 0.17-4.62-0.27-1.65-0.61-3.02-1.82-3.79-3.37-0.5-1.04-0.61-2.26-0.28-3.41 0.66-1.99 2.53-3.37 4.62-3.42q1.4 0 2.81 0v-2.1h-10.07v12.68h-3.35v-5.67h-4.02q0 0.74 0 1.48c0.05 0.44-0.28 0.89-0.72 1.05-0.55 0-1.1-0.22-1.48-0.61-0.61-0.44-1.21-0.99-1.76-1.54-0.5-0.44-1.32-1.32-1.38-1.98 0-0.33 0.22-0.61 0.5-0.72 0.11-0.05 0.16-0.05 0.27-0.05h1.27v-4.64h-4.07v12.68h-3.3v-4.63c-0.55 0.39-1.16 0.72-1.82 0.83-1.48 0.28-3.02 0-4.29-0.83-1.1-0.66-1.81-1.76-1.92-3.03q0-0.16 0-0.33c0-1.6 0-3.14 0-4.74h-1.16v-2.37h9.63l-6.27-5.79c0 0 0.05 0 0.05-0.05 0.83-0.56 1.6-1.16 2.42-1.71l6.93 7.6h11.67l-6.33-5.84c0.05 0 0.05-0.05 0.05-0.05 0.83-0.56 1.6-1.16 2.42-1.71l6.93 7.55h33.89v2.42h-1.92v12.68h-3.36v-6.34h-2.58l-1.16-2.59h3.74v-3.69h-4.12c0 1.16 0.05 2.32 0 3.47 0 1.11-0.61 2.1-1.55 2.7q-0.5 0.25-1.1 0.17c-0.16 0-0.27-0.06-0.44-0.06q-0.06 0-0.05 0l4.18 5.13zm-44.5-6.72q0.33 0.08 0.66 0c0.99-0.17 1.92-0.67 2.53-1.44v-5.01h-4.68v4.74c0 0.38 0.17 0.77 0.44 1.04 0.22 0.33 0.66 0.56 1.05 0.67zm17.93-1.99l0.06-4.46h-4.02v4.46z"/>
</svg>